<svg width="129" height="129" viewBox="0 0 129 129" fill="none" xmlns="http://www.w3.org/2000/svg">
<path d="M64.197 128.394C99.652 128.394 128.394 99.652 128.394 64.197C128.394 28.742 99.652 0 64.197 0C28.742 0 0 28.742 0 64.197C0 99.652 28.742 128.394 64.197 128.394Z" fill="#D1A17E"/>
<mask id="mask0_75_68" style="mask-type:luminance" maskUnits="userSpaceOnUse" x="0" y="0" width="129" height="129">
<path d="M64.197 128.394C99.652 128.394 128.394 99.652 128.394 64.197C128.394 28.742 99.652 0 64.197 0C28.742 0 0 28.742 0 64.197C0 99.652 28.742 128.394 64.197 128.394Z" fill="white"/>
</mask>
<g mask="url(#mask0_75_68)">
<path d="M28.3335 78.261C27.5245 69.514 27.0715 60.655 28.4485 51.979C29.8255 43.303 33.1525 34.751 39.1085 28.295C45.0655 21.839 53.8665 17.722 62.6065 18.602C65.1585 18.859 67.8765 19.664 69.3725 21.747" stroke="#493628" stroke-miterlimit="10" stroke-linecap="round" stroke-linejoin="round"/>
<path d="M35.8488 91.082C32.5358 87.996 31.6488 83.166 31.0198 78.682C29.6948 69.234 28.7098 59.618 30.0798 50.177C31.4498 40.736 35.3958 31.379 42.5678 25.088C49.7398 18.797 60.4428 16.135 69.1928 19.938C82.7588 21.264 89.0528 31.235 92.0378 39.244C99.0218 57.982 98.4018 79.496 89.8488 97.572L35.8488 91.082Z" fill="#493628"/>
</g>
<mask id="mask1_75_68" style="mask-type:luminance" maskUnits="userSpaceOnUse" x="0" y="0" width="129" height="129">
<path d="M64.197 128.394C99.652 128.394 128.394 99.652 128.394 64.197C128.394 28.742 99.652 0 64.197 0C28.742 0 0 28.742 0 64.197C0 99.652 28.742 128.394 64.197 128.394Z" fill="white"/>
</mask>
<g mask="url(#mask1_75_68)">
<path d="M78.6027 88.766C78.4857 84.825 78.2597 81.467 78.1417 77.526C81.8317 74.844 84.8977 71.097 86.1657 66.716C90.7077 65.155 94.1627 60.816 94.6667 56.04C94.8907 53.913 94.5317 51.646 93.2437 49.937C91.9567 48.229 89.9987 47.512 87.9657 48.179C87.7497 45.883 87.4247 43.942 87.2087 41.646C79.2917 38.499 72.5447 32.32 69.0967 24.53C69.3977 29.07 67.3607 33.702 63.8117 36.549C60.9947 38.808 57.4407 39.908 54.3107 41.708C51.1807 43.509 47.8597 46.34 47.9137 49.951C46.8787 48.464 45.8437 46.976 44.8087 45.489C40.8657 45.593 36.7907 48.199 35.4407 51.905C34.0917 55.612 35.0427 60.003 37.6537 62.96C40.2647 65.917 44.3847 67.399 48.3087 66.996C48.2067 72.879 47.9767 78.826 47.8747 84.709C51.9327 88.373 56.9927 91.138 62.4267 91.742C67.8607 92.346 73.8387 91.448 78.6027 88.766Z" fill="#FFC9C8"/>
<path d="M65.5129 60.0442C66.1129 58.2684 64.3746 56.0771 61.6302 55.1498C58.8859 54.2226 56.1747 54.9105 55.5747 56.6864C54.9747 58.4622 56.713 60.6535 59.4574 61.5808C62.2018 62.508 64.9129 61.8201 65.5129 60.0442Z" fill="#FF99A1"/>
<path d="M82.3706 61.677C85.1741 60.9479 87.0642 58.8862 86.5924 57.0721C86.1206 55.258 83.4655 54.3785 80.6621 55.1076C77.8586 55.8367 75.9684 57.8983 76.4402 59.7124C76.912 61.5265 79.5672 62.4061 82.3706 61.677Z" fill="#FF99A1"/>
<path d="M68.8223 23.897C70.7953 30.072 68.0343 37.426 62.4863 40.778" stroke="#493628" stroke-miterlimit="10" stroke-linecap="round" stroke-linejoin="round"/>
<path d="M88.2223 47.999C88.3123 54.294 87.5733 60.599 86.0293 66.702" stroke="#060305" stroke-miterlimit="10" stroke-linecap="round" stroke-linejoin="round"/>
<path d="M88.3887 54.9311C89.6027 54.1061 90.8177 53.2801 92.0317 52.4551" stroke="#060305" stroke-miterlimit="10" stroke-linecap="round" stroke-linejoin="round"/>
<path d="M61.5352 78.796C67.0002 81.009 73.5162 80.424 78.4992 77.272" stroke="#060305" stroke-miterlimit="10" stroke-linecap="round" stroke-linejoin="round"/>
<path d="M61.6152 54.5289C62.4437 54.5289 63.1152 53.8574 63.1152 53.0289C63.1152 52.2005 62.4437 51.5289 61.6152 51.5289C60.7868 51.5289 60.1152 52.2005 60.1152 53.0289C60.1152 53.8574 60.7868 54.5289 61.6152 54.5289Z" fill="#060305"/>
<path d="M80.582 54.5289C81.4105 54.5289 82.082 53.8574 82.082 53.0289C82.082 52.2005 81.4105 51.5289 80.582 51.5289C79.7536 51.5289 79.082 52.2005 79.082 53.0289C79.082 53.8574 79.7536 54.5289 80.582 54.5289Z" fill="#060305"/>
<path d="M57.6172 47.6649C58.1282 46.3739 59.3632 45.3989 60.7372 45.1999C62.1112 45.0009 63.5712 45.5879 64.4272 46.6809" stroke="#060305" stroke-miterlimit="10" stroke-linecap="round" stroke-linejoin="round"/>
<path d="M77.5117 46.3819C78.0837 45.2469 79.3637 44.5079 80.6327 44.5789C81.9027 44.6509 83.0907 45.5279 83.5317 46.7209" stroke="#060305" stroke-miterlimit="10" stroke-linecap="round" stroke-linejoin="round"/>
<path d="M64.5899 63.6379C64.3519 64.7759 65.0419 66.0359 66.1279 66.4499C67.2149 66.8629 68.5679 66.3789 69.1449 65.3699" stroke="#060305" stroke-miterlimit="10" stroke-linecap="round" stroke-linejoin="round"/>
<path d="M68.8574 60.9189C70.2314 61.0239 71.6044 61.1289 72.9784 61.2339C72.6084 57.8899 72.2564 54.4989 71.8864 51.1539" stroke="#060305" stroke-miterlimit="10" stroke-linecap="round" stroke-linejoin="round"/>
<path d="M40.4902 51.449C42.2492 52.517 44.0082 53.585 45.7672 54.654" stroke="#060305" stroke-miterlimit="10" stroke-linecap="round" stroke-linejoin="round"/>
<path d="M48.2695 67.178C48.0345 65.845 47.7995 64.511 47.5645 63.178" stroke="#060305" stroke-miterlimit="10" stroke-linecap="round" stroke-linejoin="round"/>
</g>
<mask id="mask2_75_68" style="mask-type:luminance" maskUnits="userSpaceOnUse" x="0" y="0" width="129" height="129">
<path d="M64.197 128.394C99.652 128.394 128.394 99.652 128.394 64.197C128.394 28.742 99.652 0 64.197 0C28.742 0 0 28.742 0 64.197C0 99.652 28.742 128.394 64.197 128.394Z" fill="white"/>
</mask>
<g mask="url(#mask2_75_68)">
<path d="M97.4855 87.458C93.3975 86.438 89.6335 85.573 85.6395 84.598L86.0415 84.176L79.5115 77.999L65.0415 87.705L46.1595 77.293L39.4535 83.823L41.0865 85.101C34.2445 87.043 27.3835 89.163 21.3855 92.954C14.8365 97.093 9.34348 103.58 8.27148 111.252C12.2475 117.243 18.8775 121.392 25.6715 123.745C32.4655 126.098 39.6755 126.942 46.8195 127.753C61.0445 129.368 75.4605 130.914 89.6265 128.847C103.792 126.781 117.905 120.68 126.809 109.471C122.108 97.312 110.136 90.614 97.4855 87.458Z" fill="white"/>
<path d="M64.8594 88.354C65.9764 101.529 67.0934 114.704 68.2104 127.879" stroke="#060305" stroke-miterlimit="10" stroke-linecap="round" stroke-linejoin="round"/>
<path d="M102.379 121.756C101.941 116.969 101.567 112.46 101.129 107.673C94.9339 108.313 88.7399 108.953 82.5449 109.594C83.1379 115.401 83.3179 121.16 83.9109 126.968" stroke="#060305" stroke-miterlimit="10" stroke-linecap="round" stroke-linejoin="round"/>
<path d="M40.6914 84.862C47.0824 89.726 53.4744 94.59 59.8654 99.454C61.6034 95.653 63.3674 91.858 65.1054 88.057C67.4714 91.578 69.8994 95.077 72.2654 98.598C76.7154 93.91 81.4044 89.205 85.8544 84.517" stroke="#060305" stroke-miterlimit="10" stroke-linecap="round" stroke-linejoin="round"/>
</g>
</svg>
